<svg id="Calque_1" data-name="Calque 1" xmlns="http://www.w3.org/2000/svg" xmlns:xlink="http://www.w3.org/1999/xlink" viewBox="0 0 182.87 143.79"><defs><style>.cls-1{fill:#fff;}.cls-2{fill:url(#Dégradé_sans_nom_7);}.cls-3{fill:url(#Dégradé_sans_nom_7-2);}.cls-4{fill:url(#Dégradé_sans_nom_7-3);}</style><linearGradient id="Dégradé_sans_nom_7" x1="112.69" y1="56.28" x2="137.95" y2="56.28" gradientUnits="userSpaceOnUse"><stop offset="0" stop-opacity="0.2"/><stop offset="1" stop-color="#fff" stop-opacity="0"/></linearGradient><linearGradient id="Dégradé_sans_nom_7-2" x1="127.32" y1="107.64" x2="155.75" y2="107.64" xlink:href="#Dégradé_sans_nom_7"/><linearGradient id="Dégradé_sans_nom_7-3" x1="111.63" y1="105.25" x2="136.63" y2="105.25" xlink:href="#Dégradé_sans_nom_7"/></defs><title>logo</title><path class="cls-1" d="M142.63,57.74a13.87,13.87,0,0,0-14.37,7.91A6.08,6.08,0,0,1,125,60.57c0-4.66,2.54-5.26,11.41-6.59s12.27-7.17,13-12.44c.63-4.89.38-14.87-10.75-16.46a19.49,19.49,0,0,0-20.31,10.37c-7.07,13.18-10,25.38-7.57,34.44,4.14,15.58,16.44,19.22,30.47,16.39,4.7-1,7.64-2.82,9.45-5a13.86,13.86,0,0,0-8.06-23.49Zm-11.13-23c8-1.76,10.12,8.14,5.22,10s-9.19.2-13.24,3.87C123.48,48.57,123.51,36.46,131.5,34.71Z"/><path class="cls-2" d="M137.71,66a46,46,0,0,1-.62-7.9,13.93,13.93,0,0,0-8.83,7.52A6.08,6.08,0,0,1,125,60.57c0-4.66,2.54-5.26,11.41-6.59l.72-.12c.1-3.18.27-6.39.26-9.51a4.16,4.16,0,0,1-.7.35c-4.9,1.85-9.19.2-13.24,3.87,0,0,0-12.11,8-13.86a6.61,6.61,0,0,1,5.07.68A21.49,21.49,0,0,0,135,30.75a9.87,9.87,0,0,0-4.82-5.1,20,20,0,0,0-11.84,9.8,90.16,90.16,0,0,0-4.4,9.4c-2.08,12-1.89,27.06,3.15,36.55a20.62,20.62,0,0,0,12,5.51C134.15,83.07,139.11,73.73,137.71,66Z"/><path class="cls-1" d="M148.71,106.87c-4.4-.5-7.71,2.24-9.25,6.18-.77-.79-2.53-1.29-2.31-2.35,1.42-6.66,17-3.37,14.55-16.43-.68-3.55-3.67-5.49-9.6-5.09l-.51,0c-5.46.5-9.61,4.42-12,9.38C123.8,111,129,128.8,144.85,125.83a20,20,0,0,0,4.64-1.45,11.93,11.93,0,0,0,4.5-3.48l0,0a9.53,9.53,0,0,0,1.62-4.16h0l0-.25C156.25,111.22,154,107.45,148.71,106.87Zm-13.85-3.59s-1.2-5.19,4.64-6.92,5.8,1.25,5.8,1.25.56,3-4.7,4.82S134.86,103.28,134.86,103.28Z"/><path class="cls-3" d="M148.71,106.87c-4.4-.5-7.71,2.24-9.25,6.18-.77-.79-2.53-1.29-2.31-2.35,1.42-6.66,17-3.37,14.55-16.43-.68-3.55-3.67-5.49-9.6-5.09l-.51,0c-5.46.5-9.61,4.42-12,9.38C123.8,111,129,128.8,144.85,125.83a20,20,0,0,0,4.64-1.45,11.93,11.93,0,0,0,4.5-3.48l0,0a9.53,9.53,0,0,0,1.62-4.16h0l0-.25C156.25,111.22,154,107.45,148.71,106.87Zm-13.85-3.59s-1.2-5.19,4.64-6.92,5.8,1.25,5.8,1.25.56,3-4.7,4.82S134.86,103.28,134.86,103.28Z"/><path class="cls-1" d="M114.91,90s-4.18.13-3.1,3.82a77.77,77.77,0,0,1,2.07,13.31c.23,3.3.42,12.24,3.55,13.48s6.72,1,8.12-.87,1-4-.51-6-5-8.88-3.48-11.39,4-3.71,6.39-1.36,2.59,3,2.59,3l5-6a4.45,4.45,0,0,0,1-3.6c-.31-1.9-1.26-4.41-4-5.08-3.8-.91-8.74,3-10.4,4.49a.35.35,0,0,1-.58-.25c0-1.15-.26-3.2-1.29-3.53C118.82,89.52,114.91,90,114.91,90Z"/><path class="cls-4" d="M114.91,90s-4.18.13-3.1,3.82a77.77,77.77,0,0,1,2.07,13.31c.23,3.3.42,12.24,3.55,13.48s6.72,1,8.12-.87,1-4-.51-6-5-8.88-3.48-11.39,4-3.71,6.39-1.36,2.59,3,2.59,3l5-6a4.45,4.45,0,0,0,1-3.6c-.31-1.9-1.26-4.41-4-5.08-3.8-.91-8.74,3-10.4,4.49a.35.35,0,0,1-.58-.25c0-1.15-.26-3.2-1.29-3.53C118.82,89.52,114.91,90,114.91,90Z"/><path class="cls-1" d="M116.92,107.66c-2.06-2.91-2.83-9.24-4.69-11.23s-6.13-3.66-13.31-.6c-4.39,1.87-9.67,6.65-8.06,9.6,2.22,4.06,5.42-2.86,11-4.21,3.36-.81,4.9,4,1.86,5.46a28.29,28.29,0,0,0-6.34,4c-4.27,3.68-3.89,9.52-2.75,12.62,1.23,3.34,4.66,6.17,12.33,2.72s7-8.94,6.51-11.07c-.18-.52-.27-.87-.27-.87a6.11,6.11,0,0,1,.27.87c.7,2.06,2.8,6.87,6.45,4.2C124,116.18,119,110.56,116.92,107.66Zm-8.59,6a9.43,9.43,0,0,1-2.75,4.3,10.79,10.79,0,0,1-4.88,2.56A1.3,1.3,0,0,1,99.13,119a9.17,9.17,0,0,1,3.38-5.31,8.15,8.15,0,0,1,4.2-2A1.53,1.53,0,0,1,108.33,113.62Z"/><path class="cls-1" d="M51.93,74.66a25.86,25.86,0,0,0,4.59-5.73,46.86,46.86,0,0,0,3.14-6.4q1.46-3.47,2.66-6.79t2.54-6.8a17.8,17.8,0,0,1,6.66-9.46q3.6-2.67,7.2-1.47a7.38,7.38,0,0,1,4.79,5.47,44.92,44.92,0,0,1,1,5.13q.33,2.46.6,5.13a59.59,59.59,0,0,0,4.4,16.39,14.09,14.09,0,0,0,1.73,3.2c.71,1,1.42,2,2.14,2.93,1.86,2.22,3.6,2.22,5.2,0,1-1.33,1.93-2.71,2.86-4.13a16.41,16.41,0,0,0,2.06-4.4c.71-2.4,1.31-4.86,1.8-7.4a63.73,63.73,0,0,0,1-7.53q.67-7.59,1-14.92T108,23c.17-3.29,1.64-5.42,4.39-6.4a8.55,8.55,0,0,1,4.6-.06,6.06,6.06,0,0,1,3.67,2.6,16.6,16.6,0,0,1,1.6,3.33,14.15,14.15,0,0,1,.8,3.73c.26,5.69.55,11.39.86,17.13a96,96,0,0,1-.6,17.12,80.29,80.29,0,0,1-2,10.4,40.42,40.42,0,0,1-4,9.73c-.72,1.24-1.45,2.44-2.2,3.59a24.91,24.91,0,0,1-2.47,3.2A22.15,22.15,0,0,1,105.5,93a21.83,21.83,0,0,1-8.19,2.2,20.49,20.49,0,0,1-8.4-1.27A25.75,25.75,0,0,1,81,89.19a27.83,27.83,0,0,1-4.59-5.27,48,48,0,0,1-3.54-6.19A11.39,11.39,0,0,1,71.92,76c-.27-.63-.58-1.29-.93-2-.36.53-.67,1-.94,1.33s-.53.76-.8,1.2c-1.24,1.86-2.4,3.73-3.46,5.59a27.33,27.33,0,0,1-3.87,5.2,36.13,36.13,0,0,1-3.86,3.6,26.71,26.71,0,0,1-4.4,2.93,14,14,0,0,1-10.53,1.87,16.51,16.51,0,0,1-9.2-5.86A28.57,28.57,0,0,1,28.6,78.53a44.57,44.57,0,0,1-1.06-17.46,84.07,84.07,0,0,1,6.79-22.93A17.24,17.24,0,0,1,37.73,33a11.77,11.77,0,0,1,5.53-3.07,10.31,10.31,0,0,1,4.93-.13,11,11,0,0,1,4.27,1.93,11.28,11.28,0,0,1,3.07,3.53,9.46,9.46,0,0,1,1.19,4.67,21.58,21.58,0,0,1-.4,4c-.71,4.79-1.42,9.62-2.13,14.45S52.77,68,52.06,72.8a2.36,2.36,0,0,0-.07.93A2.34,2.34,0,0,1,51.93,74.66Z"/></svg>